<svg width="664" height="177" viewBox="0 0 664 177" fill="none" xmlns="http://www.w3.org/2000/svg">
<g clip-path="url(#clip0_2144_2)">
<path d="M663.854 0H0.14624V177H663.854V0Z" fill="black"/>
<path d="M-331.708 110.625C-331.708 110.625 -248.744 66.375 -165.781 66.375C-82.8173 66.375 0.146165 110.625 0.146165 110.625C0.146165 110.625 83.1096 154.875 166.073 154.875C249.037 154.875 332 110.625 332 110.625C332 110.625 414.963 66.375 497.927 66.375C580.89 66.375 663.854 110.625 663.854 110.625C663.854 110.625 746.817 154.875 829.781 154.875C912.744 154.875 995.708 110.625 995.708 110.625" stroke="#222222" stroke-width="3.48067"/>
<path d="M-331.708 66.375C-331.708 66.375 -248.744 22.125 -165.781 22.125C-82.8173 22.125 0.146165 66.375 0.146165 66.375C0.146165 66.375 83.1096 110.625 166.073 110.625C249.037 110.625 332 66.375 332 66.375C332 66.375 414.963 22.125 497.927 22.125C580.89 22.125 663.854 66.375 663.854 66.375C663.854 66.375 746.817 110.625 829.781 110.625C912.744 110.625 995.708 66.375 995.708 66.375" stroke="#222222" stroke-width="3.48067"/>
<path d="M-331.708 154.875C-331.708 154.875 -248.744 110.625 -165.781 110.625C-82.8173 110.625 0.146165 154.875 0.146165 154.875C0.146165 154.875 83.1096 199.125 166.073 199.125C249.037 199.125 332 154.875 332 154.875C332 154.875 414.963 110.625 497.927 110.625C580.89 110.625 663.854 154.875 663.854 154.875C663.854 154.875 746.817 199.125 829.781 199.125C912.744 199.125 995.708 154.875 995.708 154.875" stroke="#222222" stroke-width="3.48067"/>
<path d="M-331.708 22.125C-331.708 22.125 -248.744 -22.125 -165.781 -22.125C-82.8173 -22.125 0.146165 22.125 0.146165 22.125C0.146165 22.125 83.1096 66.375 166.073 66.375C249.037 66.375 332 22.125 332 22.125C332 22.125 414.963 -22.125 497.927 -22.125C580.89 -22.125 663.854 22.125 663.854 22.125C663.854 22.125 746.817 66.375 829.781 66.375C912.744 66.375 995.708 22.125 995.708 22.125" stroke="#222222" stroke-width="3.48067"/>
<path d="M-331.708 -22.125C-331.708 -22.125 -248.744 -66.375 -165.781 -66.375C-82.8173 -66.375 0.146165 -22.125 0.146165 -22.125C0.146165 -22.125 83.1096 22.125 166.073 22.125C249.037 22.125 332 -22.125 332 -22.125C332 -22.125 414.963 -66.375 497.927 -66.375C580.89 -66.375 663.854 -22.125 663.854 -22.125C663.854 -22.125 746.817 22.125 829.781 22.125C912.744 22.125 995.708 -22.125 995.708 -22.125" stroke="#222222" stroke-width="3.48067"/>
<path d="M-331.708 199.125C-331.708 199.125 -248.744 154.875 -165.781 154.875C-82.8173 154.875 0.146165 199.125 0.146165 199.125C0.146165 199.125 83.1096 243.375 166.073 243.375C249.037 243.375 332 199.125 332 199.125C332 199.125 414.963 154.875 497.927 154.875C580.89 154.875 663.854 199.125 663.854 199.125C663.854 199.125 746.817 243.375 829.781 243.375C912.744 243.375 995.708 199.125 995.708 199.125" stroke="#222222" stroke-width="3.48067"/>
</g>
<defs>
<clipPath id="clip0_2144_2">
<rect width="664" height="177" fill="white"/>
</clipPath>
</defs>
</svg>
