<svg width="184" height="51" viewBox="0 0 184 51" fill="none" xmlns="http://www.w3.org/2000/svg">
<g clip-path="url(#clip0_2134_31)">
<path d="M170.765 19.6852C174.008 18.5892 177.615 17.8788 180.98 18.9545C182.906 19.604 183.939 21.6539 183.919 23.6023C183.96 27.6007 184 31.599 183.858 35.5974C182.703 35.5974 181.548 35.5974 180.412 35.5771C180.271 34.9479 180.149 34.3187 180.007 33.6895C177.859 35.3944 175.001 36.6122 172.244 35.5974C169.123 34.3593 168.738 29.6709 171.089 27.4992C173.46 25.3072 176.865 25.2869 179.845 24.6171C179.663 23.6023 179.5 22.3034 178.305 22.0192C175.913 21.3089 173.501 22.3845 171.21 23.034C171.028 21.938 170.886 20.8217 170.765 19.6852ZM174.575 28.9605C173.46 29.8535 173.399 32.0252 174.859 32.5935C176.622 33.2633 178.325 32.0658 179.703 31.1119C179.703 29.8129 179.703 28.514 179.683 27.215C177.94 27.5195 175.974 27.7224 174.575 28.9605ZM80.8522 11.6885C82.7778 11.5667 84.7236 11.5667 86.6694 11.6073C88.9598 17.4323 90.4394 23.582 92.9122 29.3461C94.9593 23.4602 96.8443 17.5338 98.8509 11.6479C100.776 11.587 102.702 11.587 104.628 11.6479C105.195 19.6446 106.006 27.6413 106.35 35.6379H101.891C101.364 29.9347 101.121 24.1909 100.554 18.4877C98.2631 24.0894 96.6416 29.9753 94.5539 35.6582C93.1554 35.7191 91.7568 35.6988 90.3583 35.6379C88.3517 29.955 86.7302 24.1097 84.3385 18.5689C83.852 24.2518 83.6291 29.9753 83.1021 35.6582C81.7643 35.6582 80.4266 35.6582 79.0889 35.6379C79.474 27.621 80.305 19.6649 80.8522 11.6885ZM147.07 13.4948C148.408 13.2107 149.786 13.028 151.144 12.9062C151.185 14.8344 151.185 16.7625 151.185 18.7109C152.3 18.7312 153.435 18.7921 154.57 18.8124C154.793 19.9084 154.975 21.0247 155.137 22.141C153.82 22.2019 152.523 22.2628 151.225 22.2831C151.246 25.2057 151.023 28.1487 151.327 31.0713C151.752 32.492 153.597 32.0861 154.712 32.35C154.935 33.4663 155.097 34.6028 155.218 35.7394C153.09 35.9627 150.698 36.2468 148.793 35.0291C147.537 34.1969 147.151 32.6341 147.091 31.2337C146.928 28.2704 147.131 25.3072 147.01 22.344C146.239 22.2628 145.449 22.1816 144.679 22.1004C144.699 21.0247 144.739 19.9693 144.78 18.8936C145.53 18.8327 146.28 18.7515 147.05 18.6906C147.01 16.9452 147.03 15.22 147.07 13.4948ZM108.884 19.1575C110.323 18.8733 111.782 18.7109 113.242 18.6298C114.559 22.486 115.715 26.4032 117.073 30.2392C118.451 26.5047 119.525 22.6484 120.741 18.853C122.14 18.7718 123.518 18.7312 124.917 18.7515C123.356 23.8662 121.329 28.8184 119.606 33.8925C118.694 36.2265 118.127 38.865 116.221 40.6308C114.661 42.0515 112.411 42.1124 110.445 41.7674C110.262 40.6511 110.08 39.5348 109.897 38.4388C110.87 38.4185 111.843 38.4794 112.796 38.317C114.093 37.8705 115.228 36.3077 114.64 34.9276C112.755 29.6506 110.688 24.4548 108.884 19.1575ZM127.633 18.7718C128.808 18.7718 129.984 18.7921 131.139 18.8124C131.301 19.5431 131.443 20.2737 131.605 21.0044C133.409 19.5228 135.558 18.0818 138.03 18.4877C140.179 18.5689 141.882 20.5173 141.922 22.6078C142.023 26.9309 141.963 31.2743 141.942 35.5974C140.605 35.6176 139.267 35.6379 137.949 35.6582C137.564 31.7208 138.03 27.763 137.747 23.8459C137.564 22.2222 135.558 21.8163 134.301 22.4657C133.227 22.9934 131.788 23.7444 131.869 25.1448C131.788 28.6358 131.909 32.1267 131.848 35.6176C130.43 35.6379 129.031 35.6379 127.612 35.5974C127.633 29.9753 127.612 24.3736 127.633 18.7718ZM158.36 18.7718C159.556 18.7718 160.752 18.7718 161.948 18.7921C162.09 19.7663 162.252 20.7406 162.414 21.7351C163.893 20.1926 165.515 18.5892 167.785 18.4065C168.15 19.746 168.353 21.1262 168.393 22.5063C166.164 23.0137 163.63 23.9474 162.637 26.1596C162.434 29.3055 162.677 32.4717 162.556 35.6176C161.157 35.6379 159.759 35.6379 158.36 35.5974V18.7718Z" fill="white"/>
<path d="M15.5259 5.11247C16.9447 3.4076 18.4852 1.58094 20.6742 0.890873C23.1267 0.241396 25.2144 2.16953 26.7548 3.81352C30.7883 8.44105 33.7273 13.9007 36.4636 19.3807C37.9432 16.0521 39.7876 12.8859 41.6929 9.80089C43.5171 7.00002 45.4021 4.15856 48.037 2.02746C49.2532 1.09383 50.9355 0.200804 52.4556 0.992354C54.6041 2.12894 56.2256 4.01648 57.7458 5.86343C60.9685 10.0241 63.5021 14.672 65.7925 19.401C68.6504 25.4898 71.1232 31.8425 72.1569 38.52C72.4609 41.605 72.7447 45.0756 70.88 47.775C69.4409 49.8858 66.7046 50.6165 64.2723 50.1903C62.1644 49.4393 60.3199 48.0592 58.9416 46.3137C55.6581 42.2545 53.7123 37.3428 51.9084 32.492C51.6449 31.6396 51.3206 30.8074 51.0368 29.9753C50.8544 30.8277 50.6112 31.6802 50.3274 32.5123C48.4829 37.424 46.5169 42.4371 43.132 46.5166C41.774 48.1809 39.9903 49.4596 37.9635 50.1903C35.0447 50.7991 32.2274 49.2769 30.3424 47.1255C26.6535 43.1069 24.6063 37.9111 22.7213 32.8573C22.3565 31.8222 21.9917 30.7871 21.7282 29.7114C21.4241 30.7871 21.0593 31.8628 20.6742 32.8979C18.9716 37.5457 17.0258 42.2342 13.9449 46.1513C12.2626 48.1606 10.0736 50.1294 7.33732 50.2714C4.80373 50.4947 2.3512 48.8507 1.3783 46.5369C2.46763e-05 43.3301 0.4054 39.7174 1.01346 36.3686C2.33093 29.9753 4.76319 23.8661 7.64136 18.0411C9.85065 13.5151 12.364 9.09052 15.5259 5.11247ZM16.965 6.53321C13.8436 10.5113 11.3505 14.9764 9.12098 19.5025C6.34415 25.368 3.83082 31.4772 2.75658 37.9111C2.37147 39.6971 2.37147 41.5441 2.55389 43.3504C2.77685 45.0553 3.44572 46.882 5.00641 47.7547C6.5063 48.6274 8.43184 48.2824 9.78985 47.3082C12.2221 45.6033 13.8436 43.0054 15.2421 40.4278C18.2419 34.684 20.208 28.4531 21.6876 22.1815C23.2686 28.6154 25.2549 35.029 28.4169 40.8946C29.6735 43.0663 30.991 45.3192 33.0381 46.8211C34.0718 47.7547 35.4299 48.4042 36.8487 48.2418C38.4296 48.0795 39.7471 47.0646 40.8619 45.9889C42.7469 44.0405 44.1252 41.6456 45.3413 39.2506C47.9357 33.933 49.7193 28.2501 51.1179 22.5266C52.861 29.4679 55.0298 36.4295 58.7592 42.5995C60.1578 44.7509 61.7995 46.9835 64.2521 47.9983C65.9749 48.7086 68.1639 48.0795 69.1571 46.4761C70.353 44.5479 70.4543 42.153 70.2719 39.961C70.0287 36.4092 68.995 32.9588 67.8599 29.5896C65.5898 23.0949 62.6103 16.8437 58.9822 11.0187C57.2999 8.42075 55.5568 5.80254 53.2056 3.73234C52.3746 3.00167 51.1382 2.29131 50.0842 3.02197C48.0573 4.26004 46.6588 6.22876 45.2399 8.09601C41.7943 13.0077 38.9566 18.3659 36.6257 23.8864C36.5649 23.9676 36.4028 24.13 36.3419 24.2112C36.1393 23.582 35.9366 22.9731 35.6731 22.3642C33.2814 17.1887 30.6262 12.0944 27.2413 7.50742C26.0859 5.98521 24.8901 4.4427 23.3294 3.32641C22.6605 2.8596 21.7687 2.43338 20.9782 2.8393C19.2959 3.61056 18.1203 5.13277 16.965 6.53321Z" fill="#FEFEFE"/>
<path d="M16.965 6.53312C18.1203 5.13269 19.3162 3.63077 20.9985 2.85952C21.789 2.4536 22.6808 2.85952 23.3497 3.34663C24.9104 4.46292 26.1062 6.02572 27.2615 7.52764C30.6262 12.1349 33.3016 17.2089 35.6934 22.3844C35.9771 22.973 36.1798 23.6022 36.3622 24.2314C33.2408 18.9341 30.4032 13.4338 26.5116 8.64393C25.3765 7.30438 24.1807 5.88365 22.5389 5.17328C21.6066 4.76736 20.6539 5.29506 19.8837 5.80246C17.0866 8.15682 15.0192 11.2215 13.0734 14.266C8.49265 21.5726 5.04696 29.5896 2.77686 37.911C3.8511 31.4771 6.34416 25.368 9.14125 19.5024C11.3505 14.9763 13.8436 10.5112 16.965 6.53312ZM50.0842 3.00159C51.1382 2.27093 52.3746 2.9813 53.2056 3.71196C55.5568 5.76187 57.2999 8.38007 58.9822 10.9983C62.6103 16.8436 65.6101 23.0745 67.8599 29.5693C68.995 32.9384 70.0287 36.3685 70.2719 39.9406C69.8868 37.4645 69.2382 35.0289 68.4072 32.6746C66.2587 26.2001 63.2792 19.9895 59.6713 14.2051C58.0904 11.7289 56.4081 9.27311 54.3812 7.1623C53.5704 6.35046 52.6989 5.49802 51.5841 5.13269C50.7125 4.86884 49.922 5.47772 49.2126 5.90394C47.3276 7.38556 45.8683 9.2934 44.4697 11.2215C41.9969 14.7328 39.7877 18.4267 37.8013 22.2221C37.477 22.8309 37.0716 23.3992 36.6257 23.9066C38.9566 18.3658 41.7943 13.0279 45.24 8.11622C46.6588 6.22868 48.0776 4.23966 50.0842 3.00159Z" fill="#9E242E"/>
<path d="M19.8836 5.80253C20.6538 5.29512 21.6064 4.76742 22.5388 5.17335C24.1805 5.88371 25.3764 7.30444 26.5115 8.64399C30.4031 13.4339 33.2407 18.9341 36.3418 24.2314C34.396 29.7723 32.0854 35.3334 31.9435 41.2802C31.8421 43.1881 32.3489 45.0553 33.0583 46.8211C31.0111 45.3192 29.6734 43.0663 28.437 40.8946C25.2953 35.029 23.2887 28.6357 21.7077 22.1815C20.5727 16.8233 19.5187 11.3434 19.8836 5.80253Z" fill="#FF912E"/>
<path d="M49.2329 5.88368C49.9423 5.45746 50.7328 4.84858 51.6043 5.11243C52.7191 5.47776 53.5907 6.3302 54.4014 7.14204C56.4283 9.27314 58.1106 11.7087 59.6916 14.1848C63.2994 19.9692 66.2789 26.1798 68.4274 32.6543C69.2787 35.0087 69.907 37.4442 70.2922 39.9203C70.4746 42.1123 70.3732 44.5073 69.1774 46.4354C68.1842 48.0591 66.0154 48.668 64.2723 47.9576C61.8198 46.9631 60.178 44.7102 58.7795 42.5588C55.05 36.4091 52.8813 29.4475 51.1382 22.4859C49.9626 17.0669 48.868 11.5057 49.2329 5.88368ZM13.0734 14.266C15.0192 11.2216 17.0866 8.15685 19.8837 5.8025C19.5189 11.3231 20.5728 16.8233 21.7281 22.1815C20.2485 28.4733 18.2622 34.6839 15.2827 40.4277C13.8841 43.0054 12.2626 45.6033 9.83037 47.3081C8.47237 48.2824 6.54683 48.6274 5.04694 47.7547C3.48624 46.8819 2.81737 45.035 2.59442 43.3504C2.39173 41.544 2.412 39.6971 2.79711 37.911C5.02667 29.5896 8.49263 21.5726 13.0734 14.266Z" fill="#F41CB2"/>
<path d="M44.49 11.2014C45.8885 9.27325 47.3478 7.36541 49.2328 5.88379C48.868 11.4855 49.9625 17.067 51.1584 22.5063C49.7598 28.2502 47.9559 33.9128 45.3818 39.2304C44.1656 41.6456 42.7874 44.0203 40.9024 45.9687C39.8079 47.0444 38.4701 48.0592 36.8892 48.2216C35.4703 48.3839 34.1123 47.7345 33.0786 46.8008C32.3692 45.0351 31.8625 43.1678 31.9638 41.26C32.1057 35.3132 34.4164 29.7318 36.3622 24.2112C36.423 24.13 36.5851 23.9677 36.6459 23.8865C37.0918 23.3588 37.4972 22.8108 37.8215 22.2019C39.8281 18.4065 42.0172 14.7126 44.49 11.2014Z" fill="#F25511"/>
</g>
<defs>
<clipPath id="clip0_2134_31">
<rect width="184" height="51" fill="white"/>
</clipPath>
</defs>
</svg>
